<?xml version="1.0" standalone="no"?>
<!DOCTYPE svg PUBLIC "-//W3C//DTD SVG 20010904//EN"
 "http://www.w3.org/TR/2001/REC-SVG-20010904/DTD/svg10.dtd">
<svg version="1.0" xmlns="http://www.w3.org/2000/svg"
 width="500.000000pt" height="500.000000pt" viewBox="0 0 500.000000 500.000000"
 preserveAspectRatio="xMidYMid meet">

<g transform="translate(0.000000,500.000000) scale(0.100000,-0.100000)"
fill="#000000" stroke="none">
<path d="M1062 4289 c-58 -11 -137 -56 -174 -98 -17 -19 -43 -60 -57 -91 -25
-52 -26 -64 -29 -252 l-4 -198 -63 0 c-72 0 -95 -14 -95 -59 0 -41 17 -51 92
-51 l68 0 0 -310 0 -310 -63 0 c-73 0 -99 -14 -99 -55 -1 -41 26 -55 99 -55
l63 0 0 -310 0 -309 -72 -3 c-65 -3 -74 -5 -85 -27 -8 -18 -9 -30 -1 -45 17
-32 28 -36 96 -36 l62 0 0 -310 0 -310 -69 0 c-61 0 -72 -3 -85 -22 -21 -30
-20 -44 4 -68 16 -16 33 -20 84 -20 l64 0 4 -197 c3 -193 4 -200 31 -258 40
-85 111 -149 194 -175 64 -20 92 -20 1467 -20 1541 0 1470 -3 1562 60 51 36
85 78 116 146 l23 49 0 1535 c0 1208 -3 1544 -13 1577 -28 92 -117 183 -210
215 -29 10 -341 13 -1452 14 -778 1 -1434 -2 -1458 -7z m2910 -158 c19 -13 46
-40 59 -59 l24 -36 3 -1524 c2 -1491 2 -1525 -17 -1568 -14 -31 -34 -52 -67
-74 l-48 -30 -1426 0 -1426 0 -48 30 c-77 49 -86 79 -86 298 l0 182 35 0 c25
0 39 -6 50 -24 34 -51 118 -70 176 -41 90 47 90 193 0 240 -61 31 -152 8 -181
-44 -8 -15 -21 -21 -45 -21 l-35 0 0 310 0 310 36 0 c27 0 41 -7 56 -25 80
-102 241 -49 241 79 0 136 -160 187 -246 79 -13 -16 -29 -23 -53 -23 l-34 0 0
310 0 310 34 0 c24 0 40 -7 53 -23 31 -39 66 -57 111 -57 80 0 135 55 135 136
0 128 -161 181 -241 79 -15 -18 -29 -25 -56 -25 l-36 0 0 310 0 310 35 0 c26
0 39 -6 51 -26 34 -52 123 -71 184 -39 49 25 76 96 60 156 -27 101 -166 129
-234 48 -19 -22 -33 -29 -60 -29 l-36 0 0 180 c0 197 5 223 56 274 59 59 -33
56 1515 53 l1425 -2 36 -24z"/>
<path d="M2867 3416 c-110 -40 -194 -160 -218 -316 -25 -163 34 -311 145 -361
56 -25 93 -24 153 7 248 123 272 593 34 673 -43 14 -67 13 -114 -3z"/>
<path d="M2148 3400 c-72 -38 -118 -123 -125 -229 -13 -188 69 -356 206 -426
58 -29 96 -31 149 -10 87 37 133 118 140 246 2 47 -1 109 -7 138 -45 212 -227
352 -363 281z"/>
<path d="M3325 2861 c-130 -33 -239 -170 -265 -332 -17 -112 11 -204 80 -263
111 -93 310 9 381 194 74 193 12 383 -131 404 -19 2 -48 1 -65 -3z"/>
<path d="M1753 2819 c-46 -13 -100 -71 -114 -121 -6 -24 -9 -81 -7 -128 3 -69
10 -98 35 -153 81 -172 270 -265 376 -184 46 35 66 72 78 146 25 160 -70 349
-213 420 -63 32 -99 36 -155 20z"/>
<path d="M2525 2450 c-107 -22 -223 -88 -290 -161 -118 -131 -228 -360 -242
-503 -6 -72 15 -125 66 -169 74 -62 148 -60 351 11 128 45 140 47 240 47 103
0 108 -1 237 -53 184 -72 264 -71 338 7 29 31 30 36 30 119 0 82 -3 92 -42
175 -115 238 -322 464 -473 516 -47 16 -165 22 -215 11z"/>
</g>
</svg>
